:FULLY-SPECIFIED
:FORCE-ALL-JOINTS-BE-3DOF
:DEGREES
2752
root -4.26155 14.4883 -28.4755 1232.65 -57.9821 -155.614
lfemur -47.4633 36.1433 -5.55914
ltibia 55.1899 0 0
lfoot 4.09439 0.12849 0
ltoes -17.3138 0 0
rfemur -29.8718 -17.7184 18.9835
rtibia 76.8366 0 0
rfoot -30.3761 -19.9529 0
rtoes -14.4533 0 0
lowerback 15.1126 5.55097 0.910727
upperback -2.58001 7.77295 1.53737
thorax -11.3809 3.6613 -0.800892
lowerneck -3.27607 8.83555 1.77064
upperneck 7.82952 11.607 1.22407
head 3.18872 5.84403 0.49666
lclavicle -1.50191e-14 -1.69625e-14 0
lhumerus -4.59702 8.29232 85.027
lradius 94.2806 0 0
lwrist -18.6891 0 0
lhand -40.2204 388.881 0
lfingers 7.12502 0 0
lthumb -13.18 -661.561 0
rclavicle -1.50191e-14 -1.69625e-14 0
rhumerus -55.5344 48.1775 -105.647
rradius 108.884 0 0
rwrist -81.4852 0 0
rhand 1.56288 -388.005 0
rfingers 7.12502 0 0
rthumb 27.0778 304.018 0
2753
root -4.25527 14.4915 -28.4822 1232.42 -57.883 -155.384
lfemur -47.4123 36.0938 -5.56002
ltibia 55.1535 0 0
lfoot 4.06523 0.140095 0
ltoes -17.3403 0 0
rfemur -29.8504 -17.6927 18.9791
rtibia 76.7841 0 0
rfoot -30.3532 -19.9604 0
rtoes -14.4645 0 0
lowerback 15.0969 5.54657 0.909197
upperback -2.58415 7.76697 1.53799
thorax -11.3765 3.65869 -0.797384
lowerneck -3.2808 8.81513 1.75883
upperneck 7.83838 11.5798 1.23136
head 3.19259 5.83056 0.499723
lclavicle -1.49824e-14 -1.69314e-14 0
lhumerus -4.67976 8.2931 85.0632
lradius 94.1746 0 0
lwrist -18.6855 0 0
lhand -40.2126 388.886 0
lfingers 7.12502 0 0
lthumb -13.1725 -661.557 0
rclavicle -1.49824e-14 -1.69314e-14 0
rhumerus -55.541 48.1014 -105.632
rradius 108.78 0 0
rwrist -81.3894 0 0
rhand 1.53508 -388.013 0
rfingers 7.12502 0 0
rthumb 27.0511 304.007 0
2754
root -4.24894 14.4947 -28.489 1232.2 -57.7835 -155.154
lfemur -47.3612 36.0439 -5.56097
ltibia 55.117 0 0
lfoot 4.03588 0.151817 0
ltoes -17.3671 0 0
rfemur -29.8288 -17.6669 18.9747
rtibia 76.7313 0 0
rfoot -30.33 -19.9678 0
rtoes -14.4758 0 0
lowerback 15.0812 5.54214 0.907644
upperback -2.5883 7.76093 1.53861
thorax -11.3719 3.65605 -0.793849
lowerneck -3.28555 8.7946 1.74694
upperneck 7.84727 11.5525 1.23869
head 3.19647 5.81701 0.502805
lclavicle -1.49451e-14 -1.69e-14 0
lhumerus -4.76232 8.29358 85.0991
lradius 94.0682 0 0
lwrist -18.6819 0 0
lhand -40.2048 388.89 0
lfingers 7.12502 0 0
lthumb -13.1649 -661.552 0
rclavicle -1.49451e-14 -1.69e-14 0
rhumerus -55.5471 48.0252 -105.617
rradius 108.676 0 0
rwrist -81.2927 0 0
rhand 1.50712 -388.021 0
rfingers 7.12502 0 0
rthumb 27.0242 303.996 0
2755
root -4.24256 14.4979 -28.4959 1231.97 -57.6836 -154.922
lfemur -47.3098 35.9937 -5.56197
ltibia 55.0805 0 0
lfoot 4.00636 0.163655 0
ltoes -17.3941 0 0
rfemur -29.8072 -17.6409 18.9704
rtibia 76.6781 0 0
rfoot -30.3067 -19.9751 0
rtoes -14.487 0 0
lowerback 15.0655 5.53767 0.906069
upperback -2.59245 7.75484 1.53923
thorax -11.3674 3.65339 -0.790286
lowerneck -3.29033 8.77397 1.73495
upperneck 7.85617 11.5251 1.24606
head 3.20035 5.8034 0.505905
lclavicle -1.49072e-14 -1.68682e-14 0
lhumerus -4.84471 8.29375 85.1349
lradius 93.9613 0 0
lwrist -18.6784 0 0
lhand -40.1969 388.894 0
lfingers 7.12502 0 0
lthumb -13.1572 -661.547 0
rclavicle -1.49072e-14 -1.68682e-14 0
rhumerus -55.5527 47.9487 -105.601
rradius 108.57 0 0
rwrist -81.1952 0 0
rhand 1.479 -388.029 0
rfingers 7.12502 0 0
rthumb 26.9972 303.986 0
2756
root -4.23612 14.5012 -28.5028 1231.74 -57.5834 -154.688
lfemur -47.2583 35.9431 -5.56303
ltibia 55.0438 0 0
lfoot 3.97665 0.175609 0
ltoes -17.4213 0 0
rfemur -29.7855 -17.6148 18.966
rtibia 76.6246 0 0
rfoot -30.2832 -19.9823 0
rtoes -14.4982 0 0
lowerback 15.0497 5.53317 0.904472
upperback -2.5966 7.7487 1.53985
thorax -11.3628 3.65071 -0.786696
lowerneck -3.29511 8.75324 1.72289
upperneck 7.86508 11.4975 1.25346
head 3.20424 5.78972 0.509023
lclavicle -1.48686e-14 -1.6836e-14 0
lhumerus -4.92693 8.29362 85.1705
lradius 93.854 0 0
lwrist -18.6749 0 0
lhand -40.1889 388.899 0
lfingers 7.12502 0 0
lthumb -13.1495 -661.543 0
rclavicle -1.48686e-14 -1.6836e-14 0
rhumerus -55.5579 47.8721 -105.585
rradius 108.465 0 0
rwrist -81.0968 0 0
rhand 1.45072 -388.037 0
rfingers 7.12502 0 0
rthumb 26.97 303.975 0
2757
root -4.22962 14.5045 -28.5097 1231.52 -57.4828 -154.454
lfemur -47.2065 35.8922 -5.56415
ltibia 55.0071 0 0
lfoot 3.94677 0.187678 0
ltoes -17.4488 0 0
rfemur -29.7638 -17.5885 18.9617
rtibia 76.5708 0 0
rfoot -30.2596 -19.9894 0
rtoes -14.5094 0 0
lowerback 15.0339 5.52863 0.902854
upperback -2.60076 7.74251 1.54047
thorax -11.3582 3.648 -0.78308
lowerneck -3.29992 8.7324 1.71074
upperneck 7.87402 11.4698 1.2609
head 3.20814 5.77597 0.512159
lclavicle -1.48294e-14 -1.68035e-14 0
lhumerus -5.00898 8.29318 85.2059
lradius 93.7462 0 0
lwrist -18.6714 0 0
lhand -40.1808 388.903 0
lfingers 7.12502 0 0
lthumb -13.1418 -661.538 0
rclavicle -1.48294e-14 -1.68035e-14 0
rhumerus -55.5627 47.7952 -105.568
rradius 108.358 0 0
rwrist -80.9975 0 0
rhand 1.42228 -388.046 0
rfingers 7.12502 0 0
rthumb 26.9426 303.964 0
2758
root -4.22306 14.5078 -28.5166 1231.29 -57.3818 -154.219
lfemur -47.1545 35.8409 -5.56533
ltibia 54.9702 0 0
lfoot 3.91671 0.199863 0
ltoes -17.4765 0 0
rfemur -29.742 -17.5621 18.9574
rtibia 76.5166 0 0
rfoot -30.2358 -19.9965 0
rtoes -14.5205 0 0
lowerback 15.018 5.52405 0.901213
upperback -2.60492 7.73627 1.54109
thorax -11.3536 3.64527 -0.779436
lowerneck -3.30475 8.71146 1.69851
upperneck 7.88296 11.4419 1.26838
head 3.21204 5.76215 0.515313
lclavicle -1.47896e-14 -1.67705e-14 0
lhumerus -5.09085 8.29243 85.2411
lradius 93.6379 0 0
lwrist -18.668 0 0
lhand -40.1727 388.907 0
lfingers 7.12502 0 0
lthumb -13.1339 -661.533 0
rclavicle -1.47896e-14 -1.67705e-14 0
rhumerus -55.567 47.7182 -105.552
rradius 108.251 0 0
rwrist -80.8973 0 0
rhand 1.39368 -388.054 0
rfingers 7.12502 0 0
rthumb 26.9151 303.953 0
2759
root -4.21645 14.5111 -28.5236 1231.06 -57.2804 -153.982
lfemur -47.1023 35.7893 -5.56657
ltibia 54.9333 0 0
lfoot 3.88648 0.212162 0
ltoes -17.5044 0 0
rfemur -29.7202 -17.5356 18.9531
rtibia 76.4621 0 0
rfoot -30.2118 -20.0035 0
rtoes -14.5316 0 0
lowerback 15.002 5.51944 0.89955
upperback -2.60908 7.72997 1.54172
thorax -11.3489 3.64252 -0.775766
lowerneck -3.3096 8.69042 1.68619
upperneck 7.89193 11.4139 1.27589
head 3.21596 5.74827 0.518484
lclavicle -1.47492e-14 -1.67372e-14 0
lhumerus -5.17255 8.29139 85.2761
lradius 93.5292 0 0
lwrist -18.6647 0 0
lhand -40.1645 388.912 0
lfingers 7.12502 0 0
lthumb -13.126 -661.529 0
rclavicle -1.47492e-14 -1.67372e-14 0
rhumerus -55.5708 47.641 -105.534
rradius 108.144 0 0
rwrist -80.7963 0 0
rhand 1.36493 -388.063 0
rfingers 7.12502 0 0
rthumb 26.8874 303.942 0
2760
root -4.20979 14.5145 -28.5306 1230.82 -57.1787 -153.745
lfemur -47.0499 35.7373 -5.56786
ltibia 54.8963 0 0
lfoot 3.85606 0.224575 0
ltoes -17.5325 0 0
rfemur -29.6983 -17.5089 18.9488
rtibia 76.4073 0 0
rfoot -30.1876 -20.0104 0
rtoes -14.5428 0 0
lowerback 14.9861 5.5148 0.897866
upperback -2.61324 7.72363 1.54234
thorax -11.3442 3.63974 -0.772069
lowerneck -3.31447 8.66927 1.67379
upperneck 7.90091 11.3858 1.28344
head 3.21988 5.73431 0.521673
lclavicle -1.47081e-14 -1.67035e-14 0
lhumerus -5.25409 8.29004 85.3109
lradius 93.4201 0 0
lwrist -18.6614 0 0
lhand -40.1562 388.916 0
lfingers 7.12502 0 0
lthumb -13.118 -661.524 0
rclavicle -1.47081e-14 -1.67035e-14 0
rhumerus -55.5742 47.5635 -105.517
rradius 108.036 0 0
rwrist -80.6944 0 0
rhand 1.33601 -388.071 0
rfingers 7.12502 0 0
rthumb 26.8596 303.931 0
2761
root -4.20307 14.5178 -28.5377 1230.59 -57.0766 -153.506
lfemur -46.9973 35.685 -5.56922
ltibia 54.8592 0 0
lfoot 3.82548 0.237102 0
ltoes -17.5609 0 0
rfemur -29.6763 -17.4821 18.9446
rtibia 76.3521 0 0
rfoot -30.1633 -20.0172 0
rtoes -14.5538 0 0
lowerback 14.97 5.51012 0.896161
upperback -2.61741 7.71723 1.54296
thorax -11.3395 3.63695 -0.768346
lowerneck -3.31935 8.64803 1.66131
upperneck 7.90991 11.3575 1.29102
head 3.2238 5.7203 0.524879
lclavicle -1.46665e-14 -1.66694e-14 0
lhumerus -5.33545 8.28839 85.3456
lradius 93.3105 0 0
lwrist -18.6581 0 0
lhand -40.1479 388.92 0
lfingers 7.12502 0 0
lthumb -13.11 -661.519 0
rclavicle -1.46665e-14 -1.66694e-14 0
rhumerus -55.5771 47.4859 -105.499
rradius 107.927 0 0
rwrist -80.5916 0 0
rhand 1.30695 -388.08 0
rfingers 7.12502 0 0
rthumb 26.8317 303.919 0
2762
root -4.19629 14.5212 -28.5448 1230.36 -56.9742 -153.266
lfemur -46.9444 35.6324 -5.57063
ltibia 54.8221 0 0
lfoot 3.79472 0.249742 0
ltoes -17.5895 0 0
rfemur -29.6543 -17.4552 18.9404
rtibia 76.2966 0 0
rfoot -30.1388 -20.024 0
rtoes -14.5649 0 0
lowerback 14.9539 5.50541 0.894433
upperback -2.62158 7.71079 1.54358
thorax -11.3348 3.63413 -0.764597
lowerneck -3.32425 8.62668 1.64875
upperneck 7.91892 11.3291 1.29864
head 3.22774 5.70621 0.528103
lclavicle -1.46242e-14 -1.6635e-14 0
lhumerus -5.41664 8.28644 85.38
lradius 93.2004 0 0
lwrist -18.6549 0 0
lhand -40.1395 388.925 0
lfingers 7.12502 0 0
lthumb -13.1019 -661.514 0
rclavicle -1.46242e-14 -1.6635e-14 0
rhumerus -55.5796 47.4081 -105.481
rradius 107.817 0 0
rwrist -80.488 0 0
rhand 1.27772 -388.088 0
rfingers 7.12502 0 0
rthumb 26.8036 303.908 0
2763
root -4.18946 14.5247 -28.5519 1230.12 -56.8713 -153.025
lfemur -46.8914 35.5795 -5.57209
ltibia 54.7848 0 0
lfoot 3.76378 0.262494 0
ltoes -17.6184 0 0
rfemur -29.6322 -17.4281 18.9362
rtibia 76.2408 0 0
rfoot -30.1141 -20.0307 0
rtoes -14.5759 0 0
lowerback 14.9378 5.50066 0.892685
upperback -2.62575 7.70429 1.5442
thorax -11.3301 3.63129 -0.760821
lowerneck -3.32918 8.60523 1.6361
upperneck 7.92794 11.3006 1.30629
head 3.23168 5.69206 0.531345
lclavicle -1.45813e-14 -1.66002e-14 0
lhumerus -5.49766 8.2842 85.4143
lradius 93.0899 0 0
lwrist -18.6518 0 0
lhand -40.131 388.929 0
lfingers 7.12502 0 0
lthumb -13.0937 -661.51 0
rclavicle -1.45813e-14 -1.66002e-14 0
rhumerus -55.5817 47.3301 -105.462
rradius 107.707 0 0
rwrist -80.3835 0 0
rhand 1.24835 -388.097 0
rfingers 7.12502 0 0
rthumb 26.7753 303.896 0
2764
root -4.18258 14.5281 -28.5591 1229.89 -56.7682 -152.783
lfemur -46.8382 35.5262 -5.57362
ltibia 54.7474 0 0
lfoot 3.73268 0.275359 0
ltoes -17.6474 0 0
rfemur -29.6101 -17.401 18.932
rtibia 76.1847 0 0
rfoot -30.0893 -20.0373 0
rtoes -14.5869 0 0
lowerback 14.9216 5.49588 0.890915
upperback -2.62992 7.69774 1.54482
thorax -11.3253 3.62842 -0.757019
lowerneck -3.33412 8.58368 1.62337
upperneck 7.93699 11.2719 1.31398
head 3.23562 5.67784 0.534603
lclavicle -1.45378e-14 -1.6565e-14 0
lhumerus -5.57851 8.28165 85.4484
lradius 92.979 0 0
lwrist -18.6487 0 0
lhand -40.1225 388.933 0
lfingers 7.12502 0 0
lthumb -13.0855 -661.505 0
rclavicle -1.45378e-14 -1.6565e-14 0
rhumerus -55.5833 47.2519 -105.443
rradius 107.597 0 0
rwrist -80.2782 0 0
rhand 1.21881 -388.106 0
rfingers 7.12502 0 0
rthumb 26.7469 303.885 0
2765
root -4.17564 14.5315 -28.5663 1229.65 -56.6646 -152.54
lfemur -46.7847 35.4726 -5.5752
ltibia 54.71 0 0
lfoot 3.7014 0.288335 0
ltoes -17.6767 0 0
rfemur -29.5879 -17.3736 18.9278
rtibia 76.1282 0 0
rfoot -30.0643 -20.0438 0
rtoes -14.5979 0 0
lowerback 14.9054 5.49107 0.889124
upperback -2.63409 7.69115 1.54544
thorax -11.3205 3.62554 -0.753191
lowerneck -3.33908 8.56203 1.61057
upperneck 7.94604 11.2432 1.32171
head 3.23958 5.66356 0.537879
lclavicle -1.44937e-14 -1.65295e-14 0
lhumerus -5.65919 8.27881 85.4823
lradius 92.8677 0 0
lwrist -18.6456 0 0
lhand -40.1139 388.938 0
lfingers 7.12502 0 0
lthumb -13.0772 -661.5 0
rclavicle -1.44937e-14 -1.65295e-14 0
rhumerus -55.5844 47.1735 -105.424
rradius 107.485 0 0
rwrist -80.1721 0 0
rhand 1.18913 -388.115 0
rfingers 7.12502 0 0
rthumb 26.7184 303.873 0
